<svg width="111" height="64" viewBox="0 0 111 64" fill="none" xmlns="http://www.w3.org/2000/svg">
<g id="Logo">
<path id="Vector" d="M22.4389 25.1282H19.9711V48.1649H22.4389V25.1282ZM18.4452 25.1282H15.9746V48.1649H18.4452V25.1282ZM18.4452 25.1282H15.9746V48.1649H18.4452V25.1282ZM14.4487 25.1282H11.981V48.1649H14.4487V25.1282ZM22.4389 0.524639H11.981V23.5617H22.4389V0.524639ZM10.4551 0.524639H0V48.1649H10.4551V0.524639ZM103.741 58.3446L100.549 53.4295H103.18L105.223 56.6875L107.254 53.4295H109.635L106.463 58.1712L109.976 63.5102H107.328L105.038 59.8677L102.69 63.5102H100.326L103.741 58.3446ZM97.8665 58.5374V58.4025C97.8665 56.3207 96.8529 55.0484 95.1606 55.0484C93.472 55.0484 92.4382 56.3013 92.4382 58.3834V58.5374C92.4382 60.5998 93.4345 61.8911 95.1606 61.8911C96.8529 61.8911 97.8665 60.5998 97.8665 58.5374ZM90.1108 58.5759V58.4219C90.1108 55.2991 92.2695 53.217 95.1606 53.217C98.0351 53.217 100.194 55.2797 100.194 58.364V58.5183C100.194 61.6597 98.0351 63.7034 95.1434 63.7034C92.2523 63.7034 90.1108 61.6406 90.1108 58.5759ZM86.3692 58.5374V58.3834C86.3692 56.147 85.2437 55.0484 83.7582 55.0484C82.1834 55.0484 81.0554 56.147 81.0554 58.3834V58.5374C81.0554 60.7926 82.1262 61.8529 83.7779 61.8529C85.4499 61.8529 86.3692 60.6962 86.3692 58.5374ZM81.1298 61.8911V63.5102H78.8597V48.765H81.1298V55.0484C81.6769 54.0849 82.8966 53.217 84.3422 53.217C86.8012 53.217 88.6966 55.0869 88.6966 58.3446V58.4989C88.6966 61.7372 86.8757 63.7034 84.3422 63.7034C82.7822 63.7034 81.6566 62.9126 81.1298 61.8911ZM74.3538 59.9829V58.9803H73.1883C71.4622 58.9803 70.3545 59.3857 70.3545 60.6189C70.3545 61.4678 70.8037 62.0265 71.9317 62.0265C73.32 62.0265 74.3538 61.2743 74.3538 59.9829ZM68.1009 60.7153C68.1009 58.364 70.3169 57.5157 73.1342 57.5157H74.3538V56.9955C74.3538 55.6459 73.9015 54.9716 72.5698 54.9716C71.3877 54.9716 70.8037 55.5495 70.6923 56.552H68.496C68.6825 54.2001 70.5059 53.217 72.7015 53.217C74.8979 53.217 76.624 54.1422 76.624 56.8988V63.5102H74.3908V62.2769C73.7526 63.144 72.888 63.7034 71.3877 63.7034C69.584 63.7034 68.1009 62.8166 68.1009 60.7153ZM51.7687 53.4295H54.039V54.9716C54.5084 54.027 55.5791 53.217 57.0249 53.217C58.3017 53.217 59.3151 53.7766 59.8047 55.0295C60.5548 53.7766 61.9058 53.217 63.1255 53.217C64.9292 53.217 66.392 54.3547 66.392 57.1301V63.5102H64.1218V57.2845C64.1218 55.8002 63.5034 55.1644 62.3754 55.1644C61.2505 55.1644 60.217 55.9351 60.217 57.4773V63.5102H57.9439V57.2845C57.9439 55.8002 57.3055 55.1644 56.1975 55.1644C55.0724 55.1644 54.039 55.9351 54.039 57.4773V63.5102H51.7687V53.4295ZM44.6889 53.4295H46.962V55.3188C47.5804 54.0464 48.5022 53.2946 50.1541 53.2752V55.4537C48.1644 55.4725 46.962 56.1279 46.962 58.2676V63.5102H44.6889V53.4295ZM40.5607 58.5374V58.4025C40.5607 56.3207 39.5473 55.0484 37.8553 55.0484C36.1663 55.0484 35.1356 56.3013 35.1356 58.3834V58.5374C35.1356 60.5998 36.129 61.8911 37.8553 61.8911C39.5473 61.8911 40.5607 60.5998 40.5607 58.5374ZM32.8053 58.5759V58.4219C32.8053 55.2991 34.9639 53.217 37.8553 53.217C40.7296 53.217 42.8882 55.2797 42.8882 58.364V58.5183C42.8882 61.6597 40.7296 63.7034 37.8382 63.7034C34.9466 63.7034 32.8053 61.6406 32.8053 58.5759ZM23.9591 49.7288H32.2756V51.7718H26.4555V55.8778H31.036V57.8629H26.4555V63.5102H23.9591V49.7288Z" fill="#FF6B30"/>
</g>
</svg>
