<svg xmlns="http://www.w3.org/2000/svg" width="40" height="40" viewBox="0 0 40 40" fill="none">
  <circle cx="20" cy="20" r="20" fill="white"/>
  <path d="M20.0059 20.2576C22.3056 20.2569 24.1682 18.4073 24.1675 16.1273C24.1668 13.8466 22.3018 11.9993 20.003 12C17.7041 12.0007 15.8407 13.8503 15.8414 16.1303C15.8444 18.4095 17.7078 20.2561 20.0059 20.2576ZM20.0059 14.4205C20.9584 14.4205 21.7307 15.1864 21.7307 16.131C21.7307 17.0757 20.9584 17.8408 20.0059 17.8408C19.0535 17.8408 18.2812 17.0749 18.2812 16.1303C18.2827 15.1864 19.0542 14.4212 20.0059 14.4205ZM21.6891 23.6264C22.5459 23.4336 23.3634 23.0974 24.1074 22.6332C24.6742 22.2705 24.8374 21.5215 24.4716 20.9595C24.1119 20.4062 23.3715 20.2392 22.8063 20.5842C21.092 21.6473 18.9155 21.6473 17.2012 20.5842C16.6322 20.2304 15.8807 20.3996 15.5224 20.9631C15.1627 21.5274 15.3318 22.2749 15.9015 22.6317C15.9022 22.6317 15.903 22.6325 15.903 22.6325C16.6463 23.096 17.4638 23.4322 18.3198 23.6257L15.992 25.9343C15.5284 26.4199 15.5499 27.1865 16.0402 27.6463C16.5113 28.0877 17.2471 28.0877 17.7182 27.6463L20.0045 25.3774L22.2922 27.6463C22.7684 28.1179 23.5392 28.1179 24.0154 27.6463C24.4909 27.174 24.4909 26.4096 24.0154 25.9373L21.6891 23.6264Z" fill="#C7C3C1"/>
</svg>