<svg xmlns="http://www.w3.org/2000/svg" width="40" height="40" viewBox="0 0 40 40" fill="none">
  <path d="M20 40C31.0464 40 40 31.0464 40 20C40 8.9536 31.0464 0 20 0C8.9536 0 0 8.9536 0 20C0 31.0464 8.9536 40 20 40Z" fill="white"/>
  <path d="M10.1028 20.0962C10.1028 20.0962 18.0639 17.023 20.8254 15.9412C21.8839 15.5086 25.4734 14.1236 25.4734 14.1236C25.4734 14.1236 27.1306 13.5174 26.9917 14.9899C26.9459 15.5961 26.5778 17.7167 26.2096 20.0111C25.6568 23.258 25.0594 26.8068 25.0594 26.8068C25.0594 26.8068 24.9677 27.8024 24.1856 27.9749C23.4035 28.1487 22.1145 27.3687 21.8852 27.1962C21.7005 27.0668 18.4333 25.1186 17.2372 24.1662C16.9149 23.9062 16.5468 23.3874 17.283 22.7811C18.9402 21.353 20.9184 19.5786 22.1145 18.4524C22.6673 17.9324 23.2188 16.7211 20.9184 18.1924C17.6512 20.313 14.4298 22.3043 14.4298 22.3043C14.4298 22.3043 13.6936 22.7368 12.3128 22.3474C10.932 21.958 9.32197 21.4381 9.32197 21.4381C9.32197 21.4381 8.21633 20.7887 10.1028 20.0962Z" fill="#C7C3C1"/>
</svg>