<svg xmlns="http://www.w3.org/2000/svg" width="40" height="40" viewBox="0 0 40 40" fill="none">
  <circle cx="20" cy="20" r="20" fill="white"/>
  <path fill-rule="evenodd" clip-rule="evenodd" d="M19.5251 25.2792H20.4548C20.4548 25.2792 20.7337 25.2334 20.8731 25.0959C21.0126 24.9585 21.0126 24.6837 21.0126 24.6837C21.0126 24.6837 21.0126 23.4926 21.5704 23.3094C22.1282 23.1261 22.8719 24.5004 23.6156 25.0043C24.1734 25.4166 24.5918 25.325 24.5918 25.325L26.637 25.2792C26.637 25.2792 27.7062 25.2334 27.1948 24.363C27.1484 24.3172 26.9159 23.7675 25.6609 22.6222C24.3594 21.4312 24.5453 21.6602 26.0792 19.5988C27.0089 18.3619 27.3808 17.629 27.2878 17.2625C27.1948 16.9418 26.4976 17.0335 26.4976 17.0335H24.1734C24.1734 17.0335 23.9875 16.9877 23.8945 17.0793C23.7551 17.1709 23.7086 17.3083 23.7086 17.3083C23.7086 17.3083 23.3367 18.2703 22.8719 19.0949C21.8493 20.7898 21.4309 20.8815 21.2915 20.7898C20.9196 20.5608 21.0126 19.782 21.0126 19.2781C21.0126 17.629 21.2915 16.9418 20.5013 16.7586C20.2688 16.7128 20.0829 16.667 19.4321 16.667C18.5954 16.667 17.8982 16.667 17.5263 16.8502C17.2474 16.9877 17.0615 17.2625 17.201 17.2625C17.3404 17.2625 17.7123 17.3541 17.8982 17.5832C18.0841 17.9955 18.0841 18.6826 18.0841 18.6826C18.0841 18.6826 18.2236 20.6524 17.7588 20.8815C17.4334 21.0647 17.015 20.6982 16.0854 19.1407C15.6205 18.3619 15.2487 17.4458 15.2487 17.4458C15.2487 17.4458 15.2022 17.2625 15.0627 17.1709C14.9233 17.0793 14.6909 17.0335 14.6909 17.0335H12.5062C12.5062 17.0335 12.1808 17.0335 12.0413 17.1709C11.9484 17.3083 12.0413 17.5374 12.0413 17.5374C12.0413 17.5374 13.7612 21.477 15.7135 23.4926C17.5263 25.4166 19.5251 25.2792 19.5251 25.2792Z" fill="#C7C3C1"/>
</svg>