<svg xmlns="http://www.w3.org/2000/svg" width="40" height="40" viewBox="0 0 40 40" fill="none">
  <circle cx="20" cy="20" r="20" fill="white"/>
  <path d="M28.3051 15.9787C28.2064 15.5955 28.0129 15.2461 27.7441 14.9654C27.4752 14.6847 27.1403 14.4826 26.7729 14.3792C25.4207 14 20.0002 14 20.0002 14C20.0002 14 14.5796 14 13.2274 14.3772C12.8599 14.4802 12.5248 14.6822 12.2559 14.963C11.987 15.2437 11.7936 15.5933 11.6953 15.9766C11.3335 17.3885 11.3335 20.3333 11.3335 20.3333C11.3335 20.3333 11.3335 23.2781 11.6953 24.688C11.8945 25.4666 12.4826 26.0797 13.2274 26.2875C14.5796 26.6667 20.0002 26.6667 20.0002 26.6667C20.0002 26.6667 25.4207 26.6667 26.7729 26.2875C27.5197 26.0797 28.1058 25.4666 28.3051 24.688C28.6668 23.2781 28.6668 20.3333 28.6668 20.3333C28.6668 20.3333 28.6668 17.3885 28.3051 15.9787ZM18.2784 23.0361V17.6306L22.7665 20.3132L18.2784 23.0361Z" fill="#C7C3C1"/>
</svg>